<svg preserveAspectRatio="none" width="100%" height="100%" overflow="visible" style="display: block;" viewBox="0 0 17 17" fill="none" xmlns="http://www.w3.org/2000/svg">
<g id="Icon">
<path id="Vector" d="M3.5275 2.47917C3.99715 2.48105 4.44683 2.66942 4.77759 3.00284C5.10836 3.33626 5.29313 3.78743 5.29125 4.25708C5.28937 4.72674 5.101 5.17641 4.76758 5.50718C4.43415 5.83794 3.98299 6.02271 3.51333 6.02083C3.04368 6.01895 2.59401 5.83058 2.26324 5.49716C1.93247 5.16374 1.7477 4.71257 1.74958 4.24292C1.75146 3.77326 1.93983 3.32359 2.27326 2.99282C2.60668 2.66206 3.05785 2.47729 3.5275 2.47917ZM2.125 6.375H4.95833V14.875H2.125V6.375ZM6.375 6.375H9.06667V7.57917H9.10208C9.4775 6.87083 10.3983 6.12708 11.7725 6.12708C14.45 6.12708 14.875 7.79167 14.875 9.91667V14.875H12.0417V10.4833C12.0417 9.435 12.0204 8.08917 10.5825 8.08917C9.12333 8.08917 8.89667 9.2225 8.89667 10.4054V14.875H6.375V6.375Z" fill="var(--fill-0, #B8DEEF)"/>
</g>
</svg>
