<svg preserveAspectRatio="none" width="100%" height="100%" overflow="visible" style="display: block;" viewBox="0 0 17 17" fill="none" xmlns="http://www.w3.org/2000/svg">
<g id="Icon">
<path id="Vector" d="M16.2917 5.3125C16.1941 4.95679 16.0057 4.63258 15.7449 4.37177C15.4841 4.11096 15.1599 3.92253 14.8042 3.825C13.4583 3.47083 8.5 3.47083 8.5 3.47083C8.5 3.47083 3.54167 3.47083 2.19583 3.825C1.84012 3.92253 1.51591 4.11096 1.2551 4.37177C0.994293 4.63258 0.805859 4.95679 0.708334 5.3125C0.354167 6.65833 0.354167 8.5 0.354167 8.5C0.354167 8.5 0.354167 10.3417 0.708334 11.6875C0.805859 12.0432 0.994293 12.3674 1.2551 12.6282C1.51591 12.889 1.84012 13.0775 2.19583 13.175C3.54167 13.5292 8.5 13.5292 8.5 13.5292C8.5 13.5292 13.4583 13.5292 14.8042 13.175C15.1599 13.0775 15.4841 12.889 15.7449 12.6282C16.0057 12.3674 16.1941 12.0432 16.2917 11.6875C16.6458 10.3417 16.6458 8.5 16.6458 8.5C16.6458 8.5 16.6458 6.65833 16.2917 5.3125ZM6.94167 10.8375V6.1625L10.9792 8.5L6.94167 10.8375Z" fill="var(--fill-0, #B8DEEF)"/>
</g>
</svg>
