<svg preserveAspectRatio="none" width="100%" height="100%" overflow="visible" style="display: block;" viewBox="0 0 912 100" fill="none" xmlns="http://www.w3.org/2000/svg">
<g id="FEI-Logo">
<g id="Eagle">
<path d="M769.747 0.12204C823.039 0.12204 863.667 -2.17756 867.759 13.1877C870.785 24.5158 834.583 50.1453 828.083 54.7438C843.718 33.097 852.796 10.4968 769.747 0.12204Z" fill="var(--fill-0, white)"/>
<path d="M883.057 0.233914C889.782 0.121772 899.027 0.514517 900.765 7.58028C900.765 7.58028 912.645 7.30017 911.973 18.2357C910.403 15.5439 895.778 12.236 859.914 34.5555C867.255 27.4896 874.426 20.1987 873.362 12.3477C872.297 4.55256 861.538 1.35551 857.727 0.233914H883.057Z" fill="var(--fill-0, white)"/>
</g>
<g id="Type">
<path fill-rule="evenodd" clip-rule="evenodd" d="M291.177 44.0319C297.061 44.0319 301.152 46.6678 303.057 51.3782V44.762H315.273L315.33 44.7051V82.4477C315.33 93.495 308.156 100 295.94 100C285.741 100 278.569 95.1201 276.776 86.9324L288.376 85.0267C289.161 88.3913 291.962 90.4103 295.94 90.4103C300.367 90.4103 303.057 87.6625 303.057 83.064V75.0444C301.152 79.7551 297.005 82.3908 291.177 82.3908C282.211 82.3905 277.111 75.436 277.111 63.4351C277.112 51.4347 282.211 44.0321 291.177 44.0319ZM296.893 52.444C291.794 52.444 288.768 56.9315 288.768 63.1564C288.769 69.1861 291.608 73.6375 296.421 73.91L296.893 73.9787C301.937 73.9785 303.954 68.8192 303.954 63.2113C303.954 61.5291 303.73 59.903 303.338 58.389C303.282 58.1649 303.225 57.9967 303.169 57.7727C302.16 54.6884 300.2 52.4441 296.893 52.444Z" fill="var(--fill-0, white)"/>
<path d="M162.738 53.286H151.865V68.8187C151.865 71.7348 153.826 73.531 157.244 73.5312C159.038 73.5312 160.72 73.0826 162.065 72.3536V81.3819C159.543 82.5596 156.348 83.2328 153.322 83.2328C144.748 83.2327 139.592 78.521 139.592 70.5577V53.2291H132.756V44.9288H162.738V53.286Z" fill="var(--fill-0, white)"/>
<path fill-rule="evenodd" clip-rule="evenodd" d="M512.698 43.6393C516.34 43.6393 519.255 44.4255 521.721 45.9396C524.186 47.4537 526.035 49.6404 527.324 52.444C528.613 55.248 529.23 58.5579 529.23 62.3713V64.8384H502.107C502.107 67.2496 502.5 69.3801 503.284 71.3428C504.069 73.3056 505.301 74.8206 506.926 75.9983C508.551 77.1758 510.569 77.7372 513.035 77.7372C515.5 77.7371 517.517 77.1746 519.254 76.0532C520.991 74.9316 522.113 73.305 522.617 71.174H529.004C528.556 73.7533 527.492 75.885 525.924 77.6234C524.354 79.3619 522.448 80.7084 520.207 81.6057C517.965 82.5029 515.611 82.9521 513.202 82.9521C509.671 82.952 506.59 82.1659 503.9 80.6518C501.21 79.1378 499.137 76.8952 497.624 74.0356C496.111 71.1756 495.383 67.6983 495.383 63.6608C495.383 59.6234 496.054 56.2022 497.399 53.1741C498.744 50.202 500.761 47.8458 503.339 46.1634C505.917 44.481 509.055 43.6394 512.698 43.6393ZM512.586 48.6874C510.288 48.6874 508.271 49.248 506.702 50.3694C505.133 51.491 504.012 52.9497 503.227 54.7443C502.443 56.5386 502.107 58.3333 502.107 60.2398H522.729C522.729 58.0528 522.335 56.0901 521.607 54.3517C520.879 52.6133 519.759 51.2101 518.246 50.2006C516.733 49.1913 514.883 48.6874 512.586 48.6874Z" fill="var(--fill-0, white)"/>
<path fill-rule="evenodd" clip-rule="evenodd" d="M679.861 43.6393C683.504 43.6394 686.417 44.4256 688.883 45.9396C691.348 47.4538 693.199 49.64 694.488 52.444C695.777 55.248 696.392 58.5579 696.392 62.3713V64.8384H669.269C669.269 67.2494 669.662 69.3803 670.446 71.3428C671.231 73.3056 672.465 74.8206 674.09 75.9983C675.715 77.1755 677.732 77.7371 680.197 77.7372C682.662 77.7372 684.68 77.1748 686.418 76.0532C688.155 74.9316 689.277 73.3049 689.781 71.174H696.168C695.72 73.7536 694.654 75.8849 693.085 77.6234C691.516 79.3618 689.612 80.7084 687.371 81.6057C685.129 82.503 682.775 82.9521 680.365 82.9521C676.835 82.9521 673.754 82.1659 671.064 80.6518C668.374 79.1377 666.299 76.8955 664.786 74.0356C663.273 71.1756 662.545 67.6983 662.545 63.6608C662.545 59.6233 663.218 56.2023 664.563 53.1741C665.907 50.2019 667.925 47.8458 670.503 46.1634C673.081 44.481 676.219 43.6393 679.861 43.6393ZM679.75 48.6874C677.452 48.6874 675.433 49.2478 673.864 50.3694C672.295 51.491 671.176 52.9499 670.391 54.7443C669.607 56.5387 669.269 58.3332 669.269 60.2398H689.893C689.893 58.0529 689.499 56.0901 688.771 54.3517C688.042 52.6133 686.922 51.2101 685.41 50.2006C683.897 49.1913 682.047 48.6875 679.75 48.6874Z" fill="var(--fill-0, white)"/>
<path fill-rule="evenodd" clip-rule="evenodd" d="M360.217 43.92C372.321 43.92 379.55 51.0986 379.55 63.3801V64.6696H352.876C353.156 70.3898 355.846 73.698 360.217 73.698C363.859 73.698 366.493 71.7915 367.334 68.595H379.55C378.149 77.5678 370.64 82.8952 360.217 82.8952C348.113 82.8952 340.996 75.6614 340.996 63.3801C340.996 51.0986 348.112 43.92 360.217 43.92ZM360.274 53.0053C356.295 53.0053 353.547 55.9774 353.043 61.1368H367.277C366.661 55.9778 364.252 53.0057 360.274 53.0053Z" fill="var(--fill-0, white)"/>
<path d="M551.085 43.5844C555.175 43.5845 558.481 44.4817 561.002 46.3322C563.524 48.1828 564.815 50.8745 564.927 54.4636H558.986C558.762 52.6692 557.921 51.2112 556.576 50.1457C555.175 49.0802 553.326 48.5755 551.028 48.5755C548.731 48.5755 546.658 49.0805 545.145 50.0338C543.632 50.9871 542.903 52.5001 542.903 54.5186C542.903 55.8641 543.463 56.9298 544.527 57.6589C545.592 58.4439 547.161 59.0619 549.291 59.5666L556.857 61.4724C558.594 61.921 560.05 62.5382 561.171 63.3232C562.292 64.0522 563.189 64.9499 563.862 65.8472C564.534 66.8005 565.039 67.7544 565.319 68.7638C565.599 69.773 565.766 70.7271 565.766 71.6803C565.766 73.9793 565.205 75.9981 564.029 77.6803C562.852 79.3625 561.227 80.6516 559.041 81.5488C556.856 82.446 554.279 82.8951 551.197 82.8952L550.161 82.8775C547.894 82.7909 545.761 82.3987 543.799 81.6626C541.558 80.8215 539.653 79.5871 538.196 77.8491C536.739 76.1106 535.786 73.8658 535.394 71.174H541.501C541.837 72.6317 542.454 73.9223 543.35 74.8756C544.247 75.829 545.369 76.6143 546.714 77.119C548.058 77.6237 549.516 77.8491 551.085 77.8491C553.606 77.849 555.68 77.4002 557.249 76.3908C558.818 75.4375 559.602 73.9788 559.602 72.016C559.602 70.614 559.209 69.4931 558.369 68.6519C557.528 67.8107 556.295 67.1936 554.558 66.8011L546.714 64.8384C543.632 64.1094 541.222 62.9874 539.373 61.4174C537.58 59.8473 536.682 57.6599 536.682 54.8561C536.682 52.6129 537.187 50.7054 538.251 49.023C539.316 47.3407 540.942 45.996 543.072 45.0427C545.201 44.0894 547.891 43.5844 551.085 43.5844Z" fill="var(--fill-0, white)"/>
<path d="M787.232 43.5844C791.322 43.5845 794.628 44.4817 797.15 46.3322C799.671 48.1828 800.96 50.8745 801.072 54.4636H795.133C794.909 52.6693 794.068 51.2112 792.723 50.1457C791.322 49.0802 789.473 48.5755 787.175 48.5755C784.878 48.5755 782.805 49.0805 781.292 50.0338C779.779 50.9871 779.05 52.5 779.05 54.5186C779.05 55.8641 779.61 56.9298 780.674 57.6589C781.739 58.444 783.308 59.0619 785.438 59.5666L793.004 61.4724C794.741 61.921 796.198 62.5382 797.318 63.3232C798.439 64.0521 799.334 64.9501 800.007 65.8472C800.679 66.8006 801.184 67.7543 801.464 68.7638C801.744 69.7732 801.913 70.727 801.913 71.6803C801.913 73.9793 801.352 75.9981 800.176 77.6803C798.999 79.3625 797.374 80.6515 795.188 81.5488C793.003 82.446 790.426 82.8951 787.344 82.8952L786.308 82.8775C784.041 82.791 781.908 82.3986 779.946 81.6626C777.705 80.8214 775.798 79.5876 774.341 77.8491C772.884 76.1106 771.933 73.8658 771.541 71.174H777.648C777.984 72.6318 778.601 73.9223 779.497 74.8756C780.394 75.829 781.516 76.6143 782.861 77.119C784.205 77.6236 785.663 77.8491 787.232 77.8491C789.753 77.849 791.827 77.4001 793.396 76.3908C794.965 75.4375 795.749 73.9787 795.749 72.016C795.749 70.6141 795.356 69.4931 794.516 68.6519C793.78 67.9157 792.744 67.3507 791.333 66.9581L782.861 64.8384C779.779 64.1094 777.367 62.9877 775.518 61.4174C773.725 59.8473 772.829 57.6598 772.829 54.8561C772.829 52.6129 773.334 50.7054 774.398 49.023C775.463 47.341 777.088 45.9959 779.217 45.0427C781.346 44.0893 784.038 43.5844 787.232 43.5844Z" fill="var(--fill-0, white)"/>
<path d="M112.415 43.8631C123.006 43.8633 129.282 48.4076 129.282 56.2025H117.906C117.906 53.0062 115.889 51.1547 112.415 51.1545C109.164 51.1545 107.314 52.5005 107.314 54.5755C107.314 57.211 111.013 57.8848 115.384 58.5578C121.884 59.5672 130.234 60.9128 130.234 69.8295C130.233 78.0167 123.566 82.84 112.415 82.8402C101.263 82.8402 94.5939 78.0728 94.5937 69.9414L105.97 69.9964C105.97 73.4172 108.324 75.38 112.415 75.38C116.281 75.3799 118.466 73.9229 118.467 71.3997C118.467 68.2031 114.599 67.6428 110.116 66.9699C103.616 66.0165 95.5469 64.725 95.5469 55.6962C95.5473 48.2941 101.824 43.8631 112.415 43.8631Z" fill="var(--fill-0, white)"/>
<path fill-rule="evenodd" clip-rule="evenodd" d="M246.794 44.0319C252.678 44.0319 256.769 46.6678 258.675 51.3782V44.6501H270.891V82.167H258.675V75.0444C256.769 79.7551 252.622 82.3908 246.794 82.3908C237.828 82.3905 232.729 75.436 232.729 63.4351C232.729 51.4347 237.828 44.0321 246.794 44.0319ZM252.454 52.444C247.355 52.4443 244.329 56.9317 244.329 63.1564C244.329 69.1866 247.169 73.6381 251.983 73.91L252.454 73.9787C257.497 73.9787 259.516 68.8193 259.516 63.2113C259.516 61.5291 259.291 59.903 258.898 58.389C258.842 58.165 258.788 57.9965 258.732 57.7727C257.723 54.6883 255.76 52.444 252.454 52.444Z" fill="var(--fill-0, white)"/>
<path d="M584.483 44.3695H593V49.3606L592.946 49.2468H584.426V72.7461C584.426 74.0911 584.595 75.0439 584.875 75.6607C585.156 76.2775 585.66 76.67 586.333 76.8383C587.005 77.0065 587.902 77.119 589.078 77.119H593.226V81.6626C592.778 81.8308 592.049 81.9979 591.096 82.1101C590.144 82.2223 588.966 82.3338 587.621 82.3338C584.987 82.3338 582.97 81.9991 581.569 81.2701C580.112 80.5412 579.159 79.4754 578.543 78.1298C577.983 76.7278 577.704 75.0437 577.704 73.0248V49.3037H571.538V44.3695H577.87L579.496 33.3764H584.483V44.3695Z" fill="var(--fill-0, white)"/>
<path d="M642.37 43.6393C643.715 43.6393 645.061 43.8631 646.518 44.2556C647.975 44.6482 649.32 45.3777 650.497 46.3871C651.73 47.3965 652.739 48.7987 653.523 50.5932C654.308 52.3877 654.7 54.688 654.7 57.492V82.222H647.918V58.1652C647.918 55.866 647.527 54.0703 646.799 52.8365C646.07 51.603 645.118 50.7054 643.941 50.2006C642.764 49.6959 641.53 49.4156 640.186 49.4156C639.009 49.4156 637.777 49.6403 636.432 50.0888C635.143 50.5374 634.021 51.3224 633.069 52.444C632.172 53.5095 631.668 55.024 631.668 56.9307V82.222H624.944V56.2025C624.944 54.7448 624.551 53.4542 623.767 52.5009C622.982 51.4915 621.973 50.7623 620.796 50.2575C619.619 49.7529 618.442 49.4725 617.266 49.4725C615.977 49.4725 614.687 49.7529 613.398 50.2575C612.11 50.7622 610.99 51.6035 610.094 52.7247C609.197 53.8462 608.748 55.3042 608.748 57.0426V82.3338H601.967L601.912 82.167V44.3695H608.468V49.865C609.533 48.1826 610.933 46.78 612.783 45.4902C614.632 44.2564 616.986 43.6394 619.9 43.6393C621.244 43.6393 622.645 43.864 624.102 44.3125C625.503 44.7611 626.848 45.4901 628.025 46.3871C629.201 47.2843 630.155 48.4623 630.827 49.8081C632.004 47.9575 633.573 46.4429 635.591 45.3214C637.608 44.2 639.849 43.6395 642.37 43.6393Z" fill="var(--fill-0, white)"/>
<path d="M756.858 44.3695H765.375V49.3606L765.32 49.2468H756.803V72.7461C756.803 74.0911 756.97 75.0439 757.25 75.6607C757.53 76.2775 758.035 76.67 758.707 76.8383C759.38 77.0065 760.276 77.1189 761.453 77.119H765.601V81.6626C765.152 81.8308 764.423 81.9979 763.471 82.1101C762.518 82.2223 761.341 82.3338 759.996 82.3338C757.362 82.3338 755.344 81.9991 753.944 81.2701C752.487 80.5411 751.534 79.4754 750.918 78.1298C750.357 76.7278 750.078 75.0437 750.078 73.0248V49.3037H743.912V44.3695H750.245L751.871 33.3764H756.858V44.3695Z" fill="var(--fill-0, white)"/>
<path d="M439.4 43.8631C441.809 43.8632 443.996 44.3131 446.013 45.2664C448.03 46.2198 449.655 47.6777 450.831 49.6962C452.064 51.7151 452.624 54.2955 452.624 57.492V82.222H445.844V58.1652C445.844 55.1931 445.059 53.006 443.546 51.604C441.977 50.146 440.016 49.4726 437.551 49.4725C435.869 49.4725 434.243 49.7517 432.73 50.3125C431.273 50.8733 430.042 51.6601 429.145 52.7816C428.192 53.9032 427.743 55.3053 427.743 56.9876V82.2789H420.963L421.018 82.167V44.3695H427.576V49.865C428.192 48.7997 429.032 47.8456 430.096 46.9484C431.161 46.0512 432.507 45.322 434.02 44.7051C435.589 44.1445 437.327 43.8631 439.4 43.8631Z" fill="var(--fill-0, white)"/>
<path d="M723.234 43.8631C725.644 43.8631 727.83 44.3131 729.847 45.2664C731.864 46.2198 733.491 47.6773 734.668 49.6962C735.9 51.7151 736.46 54.2956 736.46 57.492V82.222H729.68V58.1652C729.68 55.1933 728.895 53.006 727.382 51.604C725.813 50.1461 723.852 49.4726 721.387 49.4725C719.706 49.4725 718.079 49.7517 716.566 50.3125C715.109 50.8733 713.876 51.66 712.979 52.7816C712.027 53.903 711.579 55.3056 711.579 56.9876V82.2789H704.797L704.854 82.167V44.3695H711.41V49.865C712.027 48.7995 712.868 47.8457 713.932 46.9484C714.997 46.0513 716.342 45.3219 717.855 44.7051C719.423 44.1444 721.161 43.8632 723.234 43.8631Z" fill="var(--fill-0, white)"/>
<path d="M37.2107 38.2007H12.9455V49.8081H33.4551V59.3429H12.8886V82.167H0V27.3765H37.2107V38.2007Z" fill="var(--fill-0, white)"/>
<path d="M56.5437 82.167H44.2708V44.6501H56.5437V82.167Z" fill="var(--fill-0, white)"/>
<path d="M88.0926 43.92C90.166 43.92 92.2962 44.3694 93.8093 45.1545L90.2224 55.9768C88.8217 55.0799 86.9728 54.6306 85.292 54.6304C80.1925 54.6304 77.2219 58.8383 77.2219 66.1848V82.167H64.9491V44.6501H77.2219V60.913H77.3906C77.3906 50.2021 81.3683 43.9204 88.0926 43.92Z" fill="var(--fill-0, white)"/>
<path d="M227.069 38.2007H199.723V49.4725H224.492L224.435 59.3978H199.666V71.3428H227.853V82.167H186.834L186.889 27.4334H227.069V38.2007Z" fill="var(--fill-0, white)"/>
<path d="M474.593 73.643H475.208L485.295 44.3125H491.627L477.954 82.167H471.845L458.172 44.3125H464.504L474.593 73.643Z" fill="var(--fill-0, white)"/>
<path d="M335.391 82.1101H323.12V27.3765H335.391V82.1101Z" fill="var(--fill-0, white)"/>
<path d="M409.698 82.1101H402.919V27.3765H409.698V82.1101Z" fill="var(--fill-0, white)"/>
<path d="M151.865 31.5825C151.865 40.2188 146.597 44.6482 139.592 44.6482V31.5825H151.865Z" fill="var(--fill-0, white)"/>
<path d="M56.5437 38.2007H44.2708V27.4334H56.5437V38.2007Z" fill="var(--fill-0, white)"/>
</g>
</g>
</svg>
